<svg xmlns="http://www.w3.org/2000/svg" xmlns:xlink="http://www.w3.org/1999/xlink" viewBox="0,0,256,256" width="24px" height="24px"><g fill="#ffffff" fill-rule="nonzero" stroke="none" stroke-width="1" stroke-linecap="butt" stroke-linejoin="miter" stroke-miterlimit="10" stroke-dasharray="" stroke-dashoffset="0" font-family="none" font-weight="none" font-size="none" text-anchor="none" style="mix-blend-mode: normal"><g transform="scale(10.66667,10.66667)"><path d="M5.87305,2c-0.32,0 -0.62059,0.15211 -0.80859,0.41211l-2.87305,3.96289c-0.124,0.171 -0.19141,0.37689 -0.19141,0.58789v12.03711c0,0.552 0.448,1 1,1h4v2c0,0.552 0.448,1 1,1h1.58594c0.265,0 0.51903,-0.10497 0.70703,-0.29297l2.41406,-2.41406c0.187,-0.188 0.44203,-0.29297 0.70703,-0.29297h3.17188c0.265,0 0.51903,-0.10497 0.70703,-0.29297l4.41406,-4.41406c0.188,-0.187 0.29297,-0.44203 0.29297,-0.70703v-11.58594c0,-0.552 -0.448,-1 -1,-1zM6,4h14v9l-3,3h-5l-3,3v-3h-3zM12,7c-0.552,0 -1,0.448 -1,1v3c0,0.552 0.448,1 1,1c0.552,0 1,-0.448 1,-1v-3c0,-0.552 -0.448,-1 -1,-1zM17,7c-0.552,0 -1,0.448 -1,1v3c0,0.552 0.448,1 1,1c0.552,0 1,-0.448 1,-1v-3c0,-0.552 -0.448,-1 -1,-1z"></path></g></g></svg>